<svg xmlns="http://www.w3.org/2000/svg" viewBox="0 0 64 64">
  <rect width="64" height="64" rx="12" fill="#1a56a0"/>
  <!-- Dove body -->
  <path d="M44 14c-4-1-8 1-10 4L18 32c-3 3-4 7-2 10s6 4 9 2l8-5 2 6c1 3 4 5 7 4s5-4 4-7l-2-7 5-3c3-2 4-6 2-9s-5-4-7-9z" fill="white" opacity="0.15"/>
  <!-- Simplified dove silhouette -->
  <path d="M40 10 C36 9, 30 12, 27 17 L14 30 C11 33, 11 38, 14 40 C17 42, 22 41, 24 38 L30 32 L32 38 C33 41, 36 43, 39 42 C42 41, 44 38, 43 35 L41 29 L46 26 C49 24, 50 20, 48 17 C46 14, 43 11, 40 10 Z" fill="white"/>
  <!-- Wing detail -->
  <path d="M32 16 C30 18, 28 22, 30 26" stroke="#1a56a0" strokeWidth="1.5" fill="none" strokeLinecap="round"/>
  <!-- Eye -->
  <circle cx="43" cy="16" r="1.5" fill="#1a56a0"/>
</svg>
